<svg xmlns="http://www.w3.org/2000/svg" width="1039.4749755859375" height="1001.2113647460938" viewBox="-440.0485534667969 -253.7258758544922 1039.4749755859375 1001.2113647460938"><title>Neo4j Graph Visualization</title><desc>Created using Neo4j (http://www.neo4j.com/)</desc><g class="layer relationships"><g class="relationship" transform="translate(-411.0485661676807 221.0959172969251) rotate(340.40939235086273)"><path class="outline" fill="#A5ABB6" stroke="none" d="M 25 0.5 L 471.08774005373476 0.5 L 471.08774005373476 -0.5 L 25 -0.5 Z M 526.2947713037347 0.5 L 972.3825113574695 0.5 L 972.3825113574695 3.5 L 979.3825113574695 0 L 972.3825113574695 -3.5 L 972.3825113574695 -0.5 L 526.2947713037347 -0.5 Z"/><text text-anchor="middle" pointer-events="none" font-size="8px" fill="#000000" x="498.69125567873476" y="3" font-family="sans-serif">SERVED_ON</text></g><g class="relationship" transform="translate(-411.0485661676807 221.0959172969251) rotate(402.842792624661)"><path class="outline" fill="#A5ABB6" stroke="none" d="M 24.018736134675446,-6.953439040707552 L 24.277555179777966,-5.987513214418485 A 1311.049247243779 1311.049247243779 0 0 1 328.56231395696057,-50.19210437861466 L 328.5355874586612,-51.19174716195721 A 1312.049247243779 1312.049247243779 0 0 0 24.018736134675446,-6.953439040707552 Z M 392.1979413889542,-51.34877510960405 L 392.17614657293245,-50.34901264481823 A 1311.049247243779 1311.049247243779 0 0 1 696.6752693617577,-7.646032363368208 L 695.9131167562133,-4.744459788735298 L 703.5726308034918,-6.351271712870045 L 697.6914728358169,-11.514795796212088 L 696.9293202302724,-8.613223221579178 A 1312.049247243779 1312.049247243779 0 0 0 392.1979413889542,-51.34877510960405"/><text text-anchor="middle" pointer-events="none" font-size="8px" fill="#000000" x="360.36704516399425" y="-48.1564433002477" font-family="sans-serif">SERVED_WITH</text></g><g class="relationship" transform="translate(-411.0485661676807 221.0959172969251) rotate(433.2968922906743)"><path class="outline" fill="#A5ABB6" stroke="none" d="M 24.018736134675446,-6.953439040707552 L 24.277555179777966,-5.987513214418485 A 589.7344026620319 589.7344026620319 0 0 1 142.18300635864614,-25.058753116640105 L 142.12411706267585,-26.057017636103865 A 590.7344026620319 590.7344026620319 0 0 0 24.018736134675446,-6.953439040707552 Z M 205.79090915389742,-26.375912185880452 L 205.74202278655045,-25.377107839129962 A 589.7344026620319 589.7344026620319 0 0 1 323.8326015122885,-7.487926043396099 L 323.0852114123983,-4.582515910801022 L 330.73645683832535,-6.2282508324181824 L 324.8291216454754,-11.361806220189536 L 324.0817315455852,-8.456396087594458 A 590.7344026620319 590.7344026620319 0 0 0 205.79090915389742,-26.375912185880452"/><text text-anchor="middle" pointer-events="none" font-size="8px" fill="#000000" x="173.95571816801416" y="-23.574821895215337" font-family="sans-serif">SERVED_WITH</text></g><g class="relationship" transform="translate(-411.0485661676807 221.0959172969251) rotate(318.23427397408574)"><path class="outline" fill="#A5ABB6" stroke="none" d="M 25 0.5 L 303.55410493466036 0.5 L 303.55410493466036 -0.5 L 25 -0.5 Z M 358.76113618466036 0.5 L 637.3152411193207 0.5 L 637.3152411193207 3.5 L 644.3152411193207 0 L 637.3152411193207 -3.5 L 637.3152411193207 -0.5 L 358.76113618466036 -0.5 Z"/><text text-anchor="middle" pointer-events="none" font-size="8px" fill="#000000" x="331.15762055966036" y="3" font-family="sans-serif">SERVED_ON</text></g><g class="relationship" transform="translate(-411.0485661676807 221.0959172969251) rotate(354.44946831200957)"><path class="outline" fill="#A5ABB6" stroke="none" d="M 24.018736134675446,-6.953439040707552 L 24.277555179777966,-5.987513214418485 A 1781.8623083572702 1781.8623083572702 0 0 1 450.34580966399824,-66.35702746064385 L 450.3261046360035,-67.35683329772996 A 1782.8623083572702 1782.8623083572702 0 0 0 24.018736134675446,-6.953439040707552 Z M 513.9849984924409,-67.47475012775703 L 513.9689975135511,-66.4748781516148 A 1781.8623083572702 1781.8623083572702 0 0 1 940.2579751479799,-7.684204767572486 L 939.4922585434781,-4.783570684894993 L 947.1537407749777,-6.380971704181292 L 941.2789306206489,-11.551716877809142 L 940.5132140161471,-8.65108279513165 A 1782.8623083572702 1782.8623083572702 0 0 0 513.9849984924409,-67.47475012775703"/><text text-anchor="middle" pointer-events="none" font-size="8px" fill="#000000" x="482.1559513888689" y="-64.19994131428075" font-family="sans-serif">SERVED_WITH</text></g><g class="relationship" transform="translate(-411.0485661676807 221.0959172969251) rotate(279.905469675067)"><path class="outline" fill="#A5ABB6" stroke="none" d="M 25 0.5 L 130.52962122461426 0.5 L 130.52962122461426 -0.5 L 25 -0.5 Z M 185.73665247461426 0.5 L 291.2662736992285 0.5 L 291.2662736992285 3.5 L 298.2662736992285 0 L 291.2662736992285 -3.5 L 291.2662736992285 -0.5 L 185.73665247461426 -0.5 Z"/><text text-anchor="middle" pointer-events="none" font-size="8px" fill="#000000" x="158.13313684961426" y="3" font-family="sans-serif">SERVED_ON</text></g><g class="relationship" transform="translate(-411.0485661676807 221.0959172969251) rotate(375.4009586707234)"><path class="outline" fill="#A5ABB6" stroke="none" d="M 24.018736134675446,-6.953439040707552 L 24.277555179777966,-5.987513214418485 A 1861.0320961175116 1861.0320961175116 0 0 1 470.82781748483796,-69.06923006864167 L 470.80894608128153,-70.0690519878492 A 1862.0320961175116 1862.0320961175116 0 0 0 24.018736134675446,-6.953439040707552 Z M 534.4673708217421,-70.18222786725391 L 534.4520546165708,-69.18234516720395 A 1861.0320961175116 1861.0320961175116 0 0 1 981.2237944611912,-7.688831344973993 L 980.4576458973099,-4.788311326414796 L 988.1193659318095,-6.384571365677526 L 982.2453258796995,-11.556191369719588 L 981.4791773158182,-8.655671351160391 A 1862.0320961175116 1862.0320961175116 0 0 0 534.4673708217421,-70.18222786725391"/><text text-anchor="middle" pointer-events="none" font-size="8px" fill="#000000" x="502.63856369330426" y="-66.89770218781541" font-family="sans-serif">SERVED_WITH</text></g><g class="relationship" transform="translate(122.55565424629775 715.9596308078217) rotate(332.9335935440987)"><path class="outline" fill="#A5ABB6" stroke="none" d="M 24.018736134675446,-6.953439040707552 L 24.277555179777966,-5.987513214418485 A 864.2725127405141 864.2725127405141 0 0 1 213.06349167949668,-34.731781048443395 L 213.02310598003083,-35.73096521328921 A 865.2725127405141 865.2725127405141 0 0 0 24.018736134675446,-6.953439040707552 Z M 276.6896523943931,-35.960055097456575 L 276.65645833086296,-34.960606172225084 A 864.2725127405141 864.2725127405141 0 0 1 465.64436325514873,-7.575673349244675 L 464.88877996951595,-4.6723831642179645 L 472.5446375678165,-6.29652738027273 L 466.6518076359924,-11.446726929280288 L 465.8962243503596,-8.543436744253578 A 865.2725127405141 865.2725127405141 0 0 0 276.6896523943931,-35.960055097456575"/><text text-anchor="middle" pointer-events="none" font-size="8px" fill="#000000" x="244.85607053964915" y="-32.931286637619905" font-family="sans-serif">SERVED_WITH</text></g><g class="relationship" transform="translate(122.55565424629775 715.9596308078217) rotate(296.3896164927876)"><path class="outline" fill="#A5ABB6" stroke="none" d="M 25 0.5 L 433.0834782981108 0.5 L 433.0834782981108 -0.5 L 25 -0.5 Z M 488.2905095481108 0.5 L 896.3739878462216 0.5 L 896.3739878462216 3.5 L 903.3739878462216 0 L 896.3739878462216 -3.5 L 896.3739878462216 -0.5 L 488.2905095481108 -0.5 Z"/><text text-anchor="middle" pointer-events="none" font-size="8px" fill="#000000" x="460.6869939231108" y="3" font-family="sans-serif">SERVED_ON</text></g><g class="relationship" transform="translate(122.55565424629775 715.9596308078217) rotate(267.9069571877891)"><path class="outline" fill="#A5ABB6" stroke="none" d="M 25 0.5 L 439.5532401390492 0.5 L 439.5532401390492 -0.5 L 25 -0.5 Z M 494.7602713890492 0.5 L 909.3135115280984 0.5 L 909.3135115280984 3.5 L 916.3135115280984 0 L 909.3135115280984 -3.5 L 909.3135115280984 -0.5 L 494.7602713890492 -0.5 Z"/><text text-anchor="middle" pointer-events="none" font-size="8px" fill="#000000" x="467.1567557640492" y="3" transform="rotate(180 467.1567557640492 0)" font-family="sans-serif">SERVED_ON</text></g><g class="relationship" transform="translate(122.55565424629775 715.9596308078217) rotate(199.7424802930588)"><path class="outline" fill="#A5ABB6" stroke="none" d="M 24.018736134675446,-6.953439040707552 L 24.277555179777966,-5.987513214418485 A 790.3500007153322 790.3500007153322 0 0 1 193.9670139175958,-32.148515521771174 L 193.9228965345218,-33.14754187603353 A 791.3500007153322 791.3500007153322 0 0 0 24.018736134675446,-6.953439040707552 Z M 257.58999926785253,-33.395440679615035 L 257.55366286603265,-32.39610106471787 A 790.3500007153322 790.3500007153322 0 0 1 427.4416980928314,-7.557302075296425 L 426.68783014729576,-4.653566012791124 L 434.3427268962664,-6.2822328794640185 L 428.4468553535457,-11.428950158636827 L 427.69298740801,-8.525214096131526 A 791.3500007153322 791.3500007153322 0 0 0 257.58999926785253,-33.395440679615035"/><text text-anchor="middle" pointer-events="none" font-size="8px" fill="#000000" x="225.75590064440786" y="-30.412041587411295" transform="rotate(180 225.75590064440786 -33.412041587411295)" font-family="sans-serif">SERVED_WITH</text></g><g class="relationship" transform="translate(122.55565424629775 715.9596308078217) rotate(306.3404566435131)"><path class="outline" fill="#A5ABB6" stroke="none" d="M 24.018736134675446,-6.953439040707552 L 24.277555179777966,-5.987513214418485 A 1317.2941723646197 1317.2941723646197 0 0 1 330.17734589690406,-50.4070821549094 L 330.15074513465333,-51.4067282920239 A 1318.2941723646197 1318.2941723646197 0 0 0 24.018736134675446,-6.953439040707552 Z M 393.81304485134683,-51.56306856478727 L 393.79135419196257,-50.56330383481554 A 1317.2941723646197 1317.2941723646197 0 0 1 699.9056228743812,-7.646703612190503 L 699.1434075964908,-4.745147500351454 L 706.8029563483207,-6.35179398241954 L 700.9219099115683,-11.515445094642569 L 700.1596946336779,-8.61388898280352 A 1318.2941723646197 1318.2941723646197 0 0 0 393.81304485134683,-51.56306856478727"/><text text-anchor="middle" pointer-events="none" font-size="8px" fill="#000000" x="361.98217899951436" y="-48.369249993642825" font-family="sans-serif">SERVED_WITH</text></g><g class="relationship" transform="translate(122.55565424629775 715.9596308078217) rotate(239.55661522294758)"><path class="outline" fill="#A5ABB6" stroke="none" d="M 25 0.5 L 440.58334825037775 0.5 L 440.58334825037775 -0.5 L 25 -0.5 Z M 495.79037950037775 0.5 L 911.3737277507555 0.5 L 911.3737277507555 3.5 L 918.3737277507555 0 L 911.3737277507555 -3.5 L 911.3737277507555 -0.5 L 495.79037950037775 -0.5 Z"/><text text-anchor="middle" pointer-events="none" font-size="8px" fill="#000000" x="468.18686387537775" y="3" transform="rotate(180 468.18686387537775 0)" font-family="sans-serif">SERVED_ON</text></g><g class="relationship" transform="translate(122.55565424629775 715.9596308078217) rotate(222.842792624661)"><path class="outline" fill="#A5ABB6" stroke="none" d="M 24.018736134675446,-6.953439040707552 L 24.277555179777966,-5.987513214418485 A 1311.049247243779 1311.049247243779 0 0 1 328.56231395696057,-50.19210437861466 L 328.5355874586612,-51.19174716195721 A 1312.049247243779 1312.049247243779 0 0 0 24.018736134675446,-6.953439040707552 Z M 392.1979413889542,-51.34877510960405 L 392.17614657293245,-50.34901264481823 A 1311.049247243779 1311.049247243779 0 0 1 696.6752693617577,-7.646032363368208 L 695.9131167562133,-4.744459788735298 L 703.5726308034918,-6.351271712870045 L 697.6914728358169,-11.514795796212088 L 696.9293202302724,-8.613223221579178 A 1312.049247243779 1312.049247243779 0 0 0 392.1979413889542,-51.34877510960405"/><text text-anchor="middle" pointer-events="none" font-size="8px" fill="#000000" x="360.36704516399425" y="-48.1564433002477" transform="rotate(180 360.36704516399425 -51.1564433002477)" font-family="sans-serif">SERVED_WITH</text></g><g class="relationship" transform="translate(-309.0320244720528 561.067762517398) rotate(253.2968922906743)"><path class="outline" fill="#A5ABB6" stroke="none" d="M 24.018736134675446,-6.953439040707552 L 24.277555179777966,-5.987513214418485 A 589.7344026620319 589.7344026620319 0 0 1 142.18300635864614,-25.058753116640105 L 142.12411706267585,-26.057017636103865 A 590.7344026620319 590.7344026620319 0 0 0 24.018736134675446,-6.953439040707552 Z M 205.79090915389742,-26.375912185880452 L 205.74202278655045,-25.377107839129962 A 589.7344026620319 589.7344026620319 0 0 1 323.8326015122885,-7.487926043396099 L 323.0852114123983,-4.582515910801022 L 330.73645683832535,-6.2282508324181824 L 324.8291216454754,-11.361806220189536 L 324.0817315455852,-8.456396087594458 A 590.7344026620319 590.7344026620319 0 0 0 205.79090915389742,-26.375912185880452"/><text text-anchor="middle" pointer-events="none" font-size="8px" fill="#000000" x="173.95571816801416" y="-23.574821895215337" transform="rotate(180 173.95571816801416 -26.574821895215337)" font-family="sans-serif">SERVED_WITH</text></g><g class="relationship" transform="translate(-309.0320244720528 561.067762517398) rotate(379.7424802930588)"><path class="outline" fill="#A5ABB6" stroke="none" d="M 24.018736134675446,-6.953439040707552 L 24.277555179777966,-5.987513214418485 A 790.3500007153322 790.3500007153322 0 0 1 193.9670139175958,-32.148515521771174 L 193.9228965345218,-33.14754187603353 A 791.3500007153322 791.3500007153322 0 0 0 24.018736134675446,-6.953439040707552 Z M 257.58999926785253,-33.395440679615035 L 257.55366286603265,-32.39610106471787 A 790.3500007153322 790.3500007153322 0 0 1 427.4416980928314,-7.557302075296425 L 426.68783014729576,-4.653566012791124 L 434.3427268962664,-6.2822328794640185 L 428.4468553535457,-11.428950158636827 L 427.69298740801,-8.525214096131526 A 791.3500007153322 791.3500007153322 0 0 0 257.58999926785253,-33.395440679615035"/><text text-anchor="middle" pointer-events="none" font-size="8px" fill="#000000" x="225.75590064440786" y="-30.412041587411295" font-family="sans-serif">SERVED_WITH</text></g><g class="relationship" transform="translate(-309.0320244720528 561.067762517398) rotate(296.8160169837222)"><path class="outline" fill="#A5ABB6" stroke="none" d="M 25 0.5 L 409.1368652094395 0.5 L 409.1368652094395 -0.5 L 25 -0.5 Z M 464.3438964594395 0.5 L 848.480761668879 0.5 L 848.480761668879 3.5 L 855.480761668879 0 L 848.480761668879 -3.5 L 848.480761668879 -0.5 L 464.3438964594395 -0.5 Z"/><text text-anchor="middle" pointer-events="none" font-size="8px" fill="#000000" x="436.7403808344395" y="3" font-family="sans-serif">SERVED_ON</text></g><g class="relationship" transform="translate(-309.0320244720528 561.067762517398) rotate(265.9682973742241)"><path class="outline" fill="#A5ABB6" stroke="none" d="M 25 0.5 L 298.9227798941025 0.5 L 298.9227798941025 -0.5 L 25 -0.5 Z M 354.1298111441025 0.5 L 628.052591038205 0.5 L 628.052591038205 3.5 L 635.052591038205 0 L 628.052591038205 -3.5 L 628.052591038205 -0.5 L 354.1298111441025 -0.5 Z"/><text text-anchor="middle" pointer-events="none" font-size="8px" fill="#000000" x="326.5262955191025" y="3" transform="rotate(180 326.5262955191025 0)" font-family="sans-serif">SERVED_ON</text></g><g class="relationship" transform="translate(-309.0320244720528 561.067762517398) rotate(355.3464978100536)"><path class="outline" fill="#A5ABB6" stroke="none" d="M 24.018736134675446,-6.953439040707552 L 24.277555179777966,-5.987513214418485 A 1599.1938520854524 1599.1938520854524 0 0 1 403.0908037613045,-60.09372945650193 L 403.0688623455698,-61.09348871466136 A 1600.1938520854524 1600.1938520854524 0 0 0 24.018736134675446,-6.953439040707552 Z M 466.72895369044846,-61.22402100598083 L 466.7111123690717,-60.22418017502264 A 1599.1938520854524 1599.1938520854524 0 0 1 845.7430596445273,-7.671893055421267 L 844.9784925255329,-4.7709557723086835 L 852.6393411582891,-6.37139265828646 L 846.7624824698531,-11.539809432904713 L 845.9979153508588,-8.638872149792128 A 1600.1938520854524 1600.1938520854524 0 0 0 466.72895369044846,-61.22402100598083"/><text text-anchor="middle" pointer-events="none" font-size="8px" fill="#000000" x="434.89928406237857" y="-57.97535948230188" font-family="sans-serif">SERVED_WITH</text></g><g class="relationship" transform="translate(-309.0320244720528 561.067762517398) rotate(333.35313931273276)"><path class="outline" fill="#A5ABB6" stroke="none" d="M 24.018736134675446,-6.953439040707552 L 24.277555179777966,-5.987513214418485 A 1774.5014771662618 1774.5014771662618 0 0 1 448.4415275045894,-66.1047944571419 L 448.42174121194313,-67.10459868929115 A 1775.5014771662618 1775.5014771662618 0 0 0 24.018736134675446,-6.953439040707552 Z M 512.0806801392689,-67.22297656116848 L 512.0646123705437,-66.223105656097 A 1774.5014771662618 1774.5014771662618 0 0 1 936.449234298124,-7.6837548417565005 L 935.6835597009041,-4.783109670217579 L 943.3450187979182,-6.380621643499767 L 937.470133761084,-11.55128173714173 L 936.704459163864,-8.650636565602808 A 1775.5014771662618 1775.5014771662618 0 0 0 512.0806801392689,-67.22297656116848"/><text text-anchor="middle" pointer-events="none" font-size="8px" fill="#000000" x="480.25160987151855" y="-63.949115847337225" font-family="sans-serif">SERVED_WITH</text></g><g class="relationship" transform="translate(555.7228517194674 127.14580045609043) rotate(534.4494683120096)"><path class="outline" fill="#A5ABB6" stroke="none" d="M 24.018736134675446,-6.953439040707552 L 24.277555179777966,-5.987513214418485 A 1781.8623083572702 1781.8623083572702 0 0 1 450.34580966399824,-66.35702746064385 L 450.3261046360035,-67.35683329772996 A 1782.8623083572702 1782.8623083572702 0 0 0 24.018736134675446,-6.953439040707552 Z M 513.9849984924409,-67.47475012775703 L 513.9689975135511,-66.4748781516148 A 1781.8623083572702 1781.8623083572702 0 0 1 940.2579751479799,-7.684204767572486 L 939.4922585434781,-4.783570684894993 L 947.1537407749777,-6.380971704181292 L 941.2789306206489,-11.551716877809142 L 940.5132140161471,-8.65108279513165 A 1782.8623083572702 1782.8623083572702 0 0 0 513.9849984924409,-67.47475012775703"/><text text-anchor="middle" pointer-events="none" font-size="8px" fill="#000000" x="482.1559513888689" y="-64.19994131428075" transform="rotate(180 482.1559513888689 -67.19994131428075)" font-family="sans-serif">SERVED_WITH</text></g><g class="relationship" transform="translate(555.7228517194674 127.14580045609043) rotate(216.96483774631577)"><path class="outline" fill="#A5ABB6" stroke="none" d="M 25 0.5 L 261.47686415395833 0.5 L 261.47686415395833 -0.5 L 25 -0.5 Z M 316.68389540395833 0.5 L 553.1607595579167 0.5 L 553.1607595579167 3.5 L 560.1607595579167 0 L 553.1607595579167 -3.5 L 553.1607595579167 -0.5 L 316.68389540395833 -0.5 Z"/><text text-anchor="middle" pointer-events="none" font-size="8px" fill="#000000" x="289.08037977895833" y="3" transform="rotate(180 289.08037977895833 0)" font-family="sans-serif">SERVED_ON</text></g><g class="relationship" transform="translate(555.7228517194674 127.14580045609043) rotate(265.167127377174)"><path class="outline" fill="#A5ABB6" stroke="none" d="M 25 0.5 L 90.73790024941745 0.5 L 90.73790024941745 -0.5 L 25 -0.5 Z M 145.94493149941746 0.5 L 211.6828317488349 0.5 L 211.6828317488349 3.5 L 218.6828317488349 0 L 211.6828317488349 -3.5 L 211.6828317488349 -0.5 L 145.94493149941746 -0.5 Z"/><text text-anchor="middle" pointer-events="none" font-size="8px" fill="#000000" x="118.34141587441745" y="3" transform="rotate(180 118.34141587441745 0)" font-family="sans-serif">SERVED_ON</text></g><g class="relationship" transform="translate(555.7228517194674 127.14580045609043) rotate(486.3404566435131)"><path class="outline" fill="#A5ABB6" stroke="none" d="M 24.018736134675446,-6.953439040707552 L 24.277555179777966,-5.987513214418485 A 1317.2941723646197 1317.2941723646197 0 0 1 330.17734589690406,-50.4070821549094 L 330.15074513465333,-51.4067282920239 A 1318.2941723646197 1318.2941723646197 0 0 0 24.018736134675446,-6.953439040707552 Z M 393.81304485134683,-51.56306856478727 L 393.79135419196257,-50.56330383481554 A 1317.2941723646197 1317.2941723646197 0 0 1 699.9056228743812,-7.646703612190503 L 699.1434075964908,-4.745147500351454 L 706.8029563483207,-6.35179398241954 L 700.9219099115683,-11.515445094642569 L 700.1596946336779,-8.61388898280352 A 1318.2941723646197 1318.2941723646197 0 0 0 393.81304485134683,-51.56306856478727"/><text text-anchor="middle" pointer-events="none" font-size="8px" fill="#000000" x="361.98217899951436" y="-48.369249993642825" transform="rotate(180 361.98217899951436 -51.369249993642825)" font-family="sans-serif">SERVED_WITH</text></g><g class="relationship" transform="translate(555.7228517194674 127.14580045609043) rotate(448.55229175717477)"><path class="outline" fill="#A5ABB6" stroke="none" d="M 24.018736134675446,-6.953439040707552 L 24.277555179777966,-5.987513214418485 A 605.1479016004956 605.1479016004956 0 0 1 146.15865202819987,-25.609281980252376 L 146.10124010444088,-26.607632555456462 A 606.1479016004956 606.1479016004956 0 0 0 24.018736134675446,-6.953439040707552 Z M 209.76824502090201,-26.91966656049192 L 209.72062151560425,-25.920801203327528 A 605.1479016004956 605.1479016004956 0 0 1 331.7881925087411,-7.494632575266097 L 331.04017618963036,-4.5893836037760405 L 338.6917761620697,-6.233469325922732 L 332.7855476008887,-11.368297870586172 L 332.037531281778,-8.463048899096115 A 606.1479016004956 606.1479016004956 0 0 0 209.76824502090201,-26.91966656049192"/><text text-anchor="middle" pointer-events="none" font-size="8px" fill="#000000" x="177.93309334277413" y="-24.10015420046591" font-family="sans-serif">SERVED_WITH</text></g><g class="relationship" transform="translate(555.7228517194674 127.14580045609043) rotate(513.3531393127328)"><path class="outline" fill="#A5ABB6" stroke="none" d="M 24.018736134675446,-6.953439040707552 L 24.277555179777966,-5.987513214418485 A 1774.5014771662618 1774.5014771662618 0 0 1 448.4415275045894,-66.1047944571419 L 448.42174121194313,-67.10459868929115 A 1775.5014771662618 1775.5014771662618 0 0 0 24.018736134675446,-6.953439040707552 Z M 512.0806801392689,-67.22297656116848 L 512.0646123705437,-66.223105656097 A 1774.5014771662618 1774.5014771662618 0 0 1 936.449234298124,-7.6837548417565005 L 935.6835597009041,-4.783109670217579 L 943.3450187979182,-6.380621643499767 L 937.470133761084,-11.55128173714173 L 936.704459163864,-8.650636565602808 A 1775.5014771662618 1775.5014771662618 0 0 0 512.0806801392689,-67.22297656116848"/><text text-anchor="middle" pointer-events="none" font-size="8px" fill="#000000" x="480.25160987151855" y="-63.949115847337225" transform="rotate(180 480.25160987151855 -66.94911584733723)" font-family="sans-serif">SERVED_WITH</text></g><g class="relationship" transform="translate(564.891425506182 489.9321461112354) rotate(268.55229175717477)"><path class="outline" fill="#A5ABB6" stroke="none" d="M 24.018736134675446,-6.953439040707552 L 24.277555179777966,-5.987513214418485 A 605.1479016004956 605.1479016004956 0 0 1 146.15865202819987,-25.609281980252376 L 146.10124010444088,-26.607632555456462 A 606.1479016004956 606.1479016004956 0 0 0 24.018736134675446,-6.953439040707552 Z M 209.76824502090201,-26.91966656049192 L 209.72062151560425,-25.920801203327528 A 605.1479016004956 605.1479016004956 0 0 1 331.7881925087411,-7.494632575266097 L 331.04017618963036,-4.5893836037760405 L 338.6917761620697,-6.233469325922732 L 332.7855476008887,-11.368297870586172 L 332.037531281778,-8.463048899096115 A 606.1479016004956 606.1479016004956 0 0 0 209.76824502090201,-26.91966656049192"/><text text-anchor="middle" pointer-events="none" font-size="8px" fill="#000000" x="177.93309334277413" y="-24.10015420046591" transform="rotate(180 177.93309334277413 -27.10015420046591)" font-family="sans-serif">SERVED_WITH</text></g><g class="relationship" transform="translate(564.891425506182 489.9321461112354) rotate(195.4009586707234)"><path class="outline" fill="#A5ABB6" stroke="none" d="M 24.018736134675446,-6.953439040707552 L 24.277555179777966,-5.987513214418485 A 1861.0320961175116 1861.0320961175116 0 0 1 470.82781748483796,-69.06923006864167 L 470.80894608128153,-70.0690519878492 A 1862.0320961175116 1862.0320961175116 0 0 0 24.018736134675446,-6.953439040707552 Z M 534.4673708217421,-70.18222786725391 L 534.4520546165708,-69.18234516720395 A 1861.0320961175116 1861.0320961175116 0 0 1 981.2237944611912,-7.688831344973993 L 980.4576458973099,-4.788311326414796 L 988.1193659318095,-6.384571365677526 L 982.2453258796995,-11.556191369719588 L 981.4791773158182,-8.655671351160391 A 1862.0320961175116 1862.0320961175116 0 0 0 534.4673708217421,-70.18222786725391"/><text text-anchor="middle" pointer-events="none" font-size="8px" fill="#000000" x="502.63856369330426" y="-66.89770218781541" transform="rotate(180 502.63856369330426 -69.89770218781541)" font-family="sans-serif">SERVED_WITH</text></g><g class="relationship" transform="translate(564.891425506182 489.9321461112354) rotate(535.3464978100536)"><path class="outline" fill="#A5ABB6" stroke="none" d="M 24.018736134675446,-6.953439040707552 L 24.277555179777966,-5.987513214418485 A 1599.1938520854524 1599.1938520854524 0 0 1 403.0908037613045,-60.09372945650193 L 403.0688623455698,-61.09348871466136 A 1600.1938520854524 1600.1938520854524 0 0 0 24.018736134675446,-6.953439040707552 Z M 466.72895369044846,-61.22402100598083 L 466.7111123690717,-60.22418017502264 A 1599.1938520854524 1599.1938520854524 0 0 1 845.7430596445273,-7.671893055421267 L 844.9784925255329,-4.7709557723086835 L 852.6393411582891,-6.37139265828646 L 846.7624824698531,-11.539809432904713 L 845.9979153508588,-8.638872149792128 A 1600.1938520854524 1600.1938520854524 0 0 0 466.72895369044846,-61.22402100598083"/><text text-anchor="middle" pointer-events="none" font-size="8px" fill="#000000" x="434.89928406237857" y="-57.97535948230188" transform="rotate(180 434.89928406237857 -60.97535948230188)" font-family="sans-serif">SERVED_WITH</text></g><g class="relationship" transform="translate(564.891425506182 489.9321461112354) rotate(512.9335935440987)"><path class="outline" fill="#A5ABB6" stroke="none" d="M 24.018736134675446,-6.953439040707552 L 24.277555179777966,-5.987513214418485 A 864.2725127405141 864.2725127405141 0 0 1 213.06349167949668,-34.731781048443395 L 213.02310598003083,-35.73096521328921 A 865.2725127405141 865.2725127405141 0 0 0 24.018736134675446,-6.953439040707552 Z M 276.6896523943931,-35.960055097456575 L 276.65645833086296,-34.960606172225084 A 864.2725127405141 864.2725127405141 0 0 1 465.64436325514873,-7.575673349244675 L 464.88877996951595,-4.6723831642179645 L 472.5446375678165,-6.29652738027273 L 466.6518076359924,-11.446726929280288 L 465.8962243503596,-8.543436744253578 A 865.2725127405141 865.2725127405141 0 0 0 276.6896523943931,-35.960055097456575"/><text text-anchor="middle" pointer-events="none" font-size="8px" fill="#000000" x="244.85607053964915" y="-32.931286637619905" transform="rotate(180 244.85607053964915 -35.931286637619905)" font-family="sans-serif">SERVED_WITH</text></g><g class="relationship" transform="translate(564.891425506182 489.9321461112354) rotate(236.29461121102003)"><path class="outline" fill="#A5ABB6" stroke="none" d="M 25 0.5 L 398.4290932720719 0.5 L 398.4290932720719 -0.5 L 25 -0.5 Z M 453.6361245220719 0.5 L 827.0652177941438 0.5 L 827.0652177941438 3.5 L 834.0652177941438 0 L 827.0652177941438 -3.5 L 827.0652177941438 -0.5 L 453.6361245220719 -0.5 Z"/><text text-anchor="middle" pointer-events="none" font-size="8px" fill="#000000" x="426.0326088970719" y="3" transform="rotate(180 426.0326088970719 0)" font-family="sans-serif">SERVED_ON</text></g><g class="relationship" transform="translate(-355.4392861234719 -97.35139653120137) rotate(343.9797556445476)"><path class="outline" fill="#A5ABB6" stroke="none" d="M 25 0.5 L 207.8228383999025 0.5 L 207.8228383999025 -0.5 L 25 -0.5 Z M 246.7173696499025 0.5 L 429.540208049805 0.5 L 429.540208049805 3.5 L 436.540208049805 0 L 429.540208049805 -3.5 L 429.540208049805 -0.5 L 246.7173696499025 -0.5 Z"/><text text-anchor="middle" pointer-events="none" font-size="8px" fill="#000000" x="227.2701040249025" y="3" font-family="sans-serif">BEFORE</text></g><g class="relationship" transform="translate(88.17665939569684 -224.72587014264047) rotate(373.7102163983002)"><path class="outline" fill="#A5ABB6" stroke="none" d="M 25 0.5 L 207.1159663889504 0.5 L 207.1159663889504 -0.5 L 25 -0.5 Z M 246.0104976389504 0.5 L 428.1264640279008 0.5 L 428.1264640279008 3.5 L 435.1264640279008 0 L 428.1264640279008 -3.5 L 428.1264640279008 -0.5 L 246.0104976389504 -0.5 Z"/><text text-anchor="middle" pointer-events="none" font-size="8px" fill="#000000" x="226.5632320139504" y="3" font-family="sans-serif">BEFORE</text></g><g class="relationship" transform="translate(535.1926821050542 -115.67066238103767) rotate(538.8216584750614)"><path class="outline" fill="#A5ABB6" stroke="none" d="M 25 0.5 L 422.46291003668586 0.5 L 422.46291003668586 -0.5 L 25 -0.5 Z M 461.35744128668586 0.5 L 858.8203513233717 0.5 L 858.8203513233717 3.5 L 865.8203513233717 0 L 858.8203513233717 -3.5 L 858.8203513233717 -0.5 L 461.35744128668586 -0.5 Z"/><text text-anchor="middle" pointer-events="none" font-size="8px" fill="#000000" x="441.91017566168586" y="3" transform="rotate(180 441.91017566168586 0)" font-family="sans-serif">BEFORE</text></g></g><g class="layer nodes"><g class="node" transform="translate(-411.0485661676807,221.0959172969251)"><circle class="outline" cx="0" cy="0" r="25" fill="#8DCC93" stroke="#5db665" stroke-width="2px"/><text text-anchor="middle" pointer-events="none" font-family="sans-serif" dy="1.5625" font-size="25" fill="#2A2C34"/><text text-anchor="middle" pointer-events="none" font-family="sans-serif" dy="1.5625" font-size="25" fill="#2A2C34"/><text text-anchor="middle" pointer-events="none" x="0" y="0" font-size="10px" fill="#2A2C34" font-family="sans-serif"> pickled</text><text text-anchor="middle" pointer-events="none" x="0" y="10" font-size="10px" fill="#2A2C34" font-family="sans-serif"> herring</text></g><g class="node" transform="translate(122.55565424629775,715.9596308078217)"><circle class="outline" cx="0" cy="0" r="25" fill="#8DCC93" stroke="#5db665" stroke-width="2px"/><text text-anchor="middle" pointer-events="none" font-family="sans-serif" dy="1.5625" font-size="25" fill="#2A2C34"/><text text-anchor="middle" pointer-events="none" font-family="sans-serif" dy="1.5625" font-size="25" fill="#2A2C34"/><text text-anchor="middle" pointer-events="none" font-family="sans-serif" dy="1.5625" font-size="25" fill="#2A2C34"/><text text-anchor="middle" pointer-events="none" x="0" y="-5" font-size="10px" fill="#2A2C34" font-family="sans-serif"> Dill</text><text text-anchor="middle" pointer-events="none" x="0" y="5" font-size="10px" fill="#2A2C34" font-family="sans-serif"> boiled</text><text text-anchor="middle" pointer-events="none" x="0" y="15" font-size="10px" fill="#2A2C34" font-family="sans-serif"> potato…</text></g><g class="node" transform="translate(-309.0320244720528,561.067762517398)"><circle class="outline" cx="0" cy="0" r="25" fill="#8DCC93" stroke="#5db665" stroke-width="2px"/><text text-anchor="middle" pointer-events="none" font-family="sans-serif" dy="1.5625" font-size="25" fill="#2A2C34"/><text text-anchor="middle" pointer-events="none" x="0" y="5" font-size="10px" fill="#2A2C34" font-family="sans-serif"> Jansson's</text></g><g class="node" transform="translate(555.7228517194674,127.14580045609043)"><circle class="outline" cx="0" cy="0" r="25" fill="#8DCC93" stroke="#5db665" stroke-width="2px"/><text text-anchor="middle" pointer-events="none" font-family="sans-serif" dy="1.5625" font-size="25" fill="#2A2C34"/><text text-anchor="middle" pointer-events="none" x="0" y="5" font-size="10px" fill="#2A2C34" font-family="sans-serif"> snaps</text></g><g class="node" transform="translate(564.891425506182,489.9321461112354)"><circle class="outline" cx="0" cy="0" r="25" fill="#8DCC93" stroke="#5db665" stroke-width="2px"/><text text-anchor="middle" pointer-events="none" font-family="sans-serif" dy="1.5625" font-size="25" fill="#2A2C34"/><text text-anchor="middle" pointer-events="none" x="0" y="5" font-size="10px" fill="#2A2C34" font-family="sans-serif"> strawber…</text></g><g class="node" transform="translate(-355.4392861234719,-97.35139653120137)"><circle class="outline" cx="0" cy="0" r="25" fill="#D9C8AE" stroke="#c0a378" stroke-width="2px"/><text text-anchor="middle" pointer-events="none" font-family="sans-serif" dy="1.5625" font-size="25" fill="#2A2C34"/><text text-anchor="middle" pointer-events="none" x="0" y="5" font-size="10px" fill="#2A2C34" font-family="sans-serif"> Easter</text></g><g class="node" transform="translate(88.17665939569684,-224.72587014264047)"><circle class="outline" cx="0" cy="0" r="25" fill="#D9C8AE" stroke="#c0a378" stroke-width="2px"/><text text-anchor="middle" pointer-events="none" font-family="sans-serif" dy="1.5625" font-size="25" fill="#2A2C34"/><text text-anchor="middle" pointer-events="none" x="0" y="5" font-size="10px" fill="#2A2C34" font-family="sans-serif"> Midsum…</text></g><g class="node" transform="translate(535.1926821050542,-115.67066238103767)"><circle class="outline" cx="0" cy="0" r="25" fill="#D9C8AE" stroke="#c0a378" stroke-width="2px"/><text text-anchor="middle" pointer-events="none" font-family="sans-serif" dy="1.5625" font-size="25" fill="#2A2C34"/><text text-anchor="middle" pointer-events="none" x="0" y="5" font-size="10px" fill="#2A2C34" font-family="sans-serif"> Christmas</text></g></g></svg>