<?xml version="1.0" encoding="utf-8"?>
<!-- Generator: Adobe Illustrator 25.4.1, SVG Export Plug-In . SVG Version: 6.00 Build 0)  -->
<svg version="1.1" id="Layer_1" xmlns="http://www.w3.org/2000/svg" xmlns:xlink="http://www.w3.org/1999/xlink" x="0px" y="0px"
	 viewBox="0 0 1107.7 403.9" style="enable-background:new 0 0 1107.7 403.9;" xml:space="preserve">
<style type="text/css">
	.st0{fill:#FB9E00;stroke:#CCCCCC;stroke-width:2;}
	.st1{fill:#4D4D4D;}
	.st2{font-family:'ArialMT';}
	.st3{font-size:16px;}
	.st4{fill:#333333;}
	.st5{fill:#B0BC00;stroke:#B0BC00;stroke-width:2;}
	.st6{fill:#68BC00;stroke:#68BC00;stroke-width:2;}
	.st7{fill:#F44E3B;stroke:#A6B7C8;stroke-width:2;}
</style>
<circle class="st0" cx="564.2" cy="92" r="91"/>
<text transform="matrix(1 0 0 1 517.2 78.94)" class="st1 st2 st3">Midsummer</text>
<text transform="matrix(1 0 0 1 526.4 109.74)" class="st4 st2 st3">holiday</text>
<circle class="st0" cx="311.1" cy="94.2" r="91"/>
<text transform="matrix(1 0 0 1 285.13 81.09)" class="st1 st2 st3">Easter</text>
<text transform="matrix(1 0 0 1 273.34 111.89)" class="st4 st2 st3">holiday</text>
<circle class="st5" cx="92" cy="301.6" r="91"/>
<text transform="matrix(1 0 0 1 37.91 273.42)" class="st1 st2 st3">Pickled herring</text>
<text transform="matrix(1 0 0 1 72.37 301.41)" class="st1 st2 st3">dish</text>
<text transform="matrix(1 0 0 1 72.37 337.75)" class="st1 st2 st3">food</text>
<circle class="st5" cx="315.5" cy="301.4" r="91"/>
<text transform="matrix(1 0 0 1 276.5 259.5601)" class="st1 st2 st3">Dill boiled</text>
<text transform="matrix(1 0 0 1 292.99 291.69)" class="st1 st2 st3">potatoes</text>
<text transform="matrix(1 0 0 1 293.92 311.9601)" class="st1 st2 st3">dish</text>
<text transform="matrix(1 0 0 1 293.92 351.9601)" class="st1 st2 st3">food</text>
<circle class="st5" cx="563" cy="300.5" r="91"/>
<text transform="matrix(1 0 0 1 523.29 258.6541)" class="st1 st2 st3">Jansson&apos;s</text>
<text transform="matrix(1 0 0 1 521.01 280.2541)" class="st1 st2 st3">temptation</text>
<text transform="matrix(1 0 0 1 541.43 311.0541)" class="st1 st2 st3">dish</text>
<text transform="matrix(1 0 0 1 541.43 351.0541)" class="st1 st2 st3">food</text>
<circle class="st0" cx="795.4" cy="94.2" r="91"/>
<text transform="matrix(1 0 0 1 754.9299 81.09)" class="st1 st2 st3">Christmas</text>
<text transform="matrix(1 0 0 1 757.63 111.89)" class="st4 st2 st3">holiday</text>
<circle class="st6" cx="789.3" cy="299.6" r="91"/>
<text transform="matrix(1 0 0 1 763.8301 268.538)" class="st1 st2 st3">Snaps</text>
<text transform="matrix(1 0 0 1 762.35 299.338)" class="st1 st2 st3">drink</text>
<text transform="matrix(1 0 0 1 767.75 339.338)" class="st1 st2 st3">food</text>
<ellipse transform="matrix(0.7071 -0.7071 0.7071 0.7071 85.819 805.8611)" class="st7" cx="1015.7" cy="299.3" rx="91" ry="91"/>
<text transform="matrix(1 0 0 1 965.1599 268.2779)" class="st1 st2 st3">Strawberries</text>
<text transform="matrix(1 0 0 1 988.6699 299.0779)" class="st1 st2 st3">fruit</text>
<text transform="matrix(1 0 0 1 994.0701 339.0779)" class="st1 st2 st3">food</text>
</svg>
