<?xml version="1.0" encoding="utf-8"?>
<!-- Generator: Adobe Illustrator 25.4.1, SVG Export Plug-In . SVG Version: 6.00 Build 0)  -->
<svg version="1.1" id="Layer_1" xmlns="http://www.w3.org/2000/svg" xmlns:xlink="http://www.w3.org/1999/xlink" x="0px" y="0px"
	 viewBox="0 0 1203.3 448.5" style="enable-background:new 0 0 1203.3 448.5;" xml:space="preserve">
<style type="text/css">
	.st0{fill:#FB9E00;stroke:#CCCCCC;stroke-width:2;}
	.st1{fill:#4D4D4D;}
	.st2{font-family:'ArialMT';}
	.st3{font-size:16px;}
	.st4{fill:#B0BC00;stroke:#B0BC00;stroke-width:2;}
	.st5{fill:#68BC00;stroke:#68BC00;stroke-width:2;}
	.st6{fill:#F44E3B;stroke:#A6B7C8;stroke-width:2;}
</style>
<g id="Layer_2_00000078022023461411481810000012853006536265526183_">
	<g id="Layer_1-2">
		<circle class="st0" cx="602.6" cy="92" r="91"/>
		<text transform="matrix(1 0 0 1 555.57 78.94)" class="st1 st2 st3">Midsummer</text>
		<circle class="st0" cx="181.6" cy="93.1" r="91"/>
		<text transform="matrix(1 0 0 1 155.64 80.02)" class="st1 st2 st3">Easter</text>
		<circle class="st0" cx="996.9" cy="92" r="91"/>
		<text transform="matrix(1 0 0 1 956.37 78.94)" class="st1 st2 st3">Christmas</text>
		<circle class="st4" cx="97" cy="318.1" r="91"/>
		<text transform="matrix(1 0 0 1 38.14 305.17)" class="st1 st2 st3">Pickled herring</text>
		<circle class="st4" cx="338.9" cy="318.1" r="91"/>
		<text transform="matrix(1 0 0 1 299.86 294.23)" class="st1 st2 st3">Dill boiled</text>
		<text transform="matrix(1 0 0 1 304.35 315.83)" class="st1 st2 st3">potatoes</text>
		<circle class="st4" cx="594.3" cy="315.8" r="91"/>
		<text transform="matrix(1 0 0 1 562.9101 287.9538)" class="st1 st2 st3">Jansson&apos;s</text>
		<text transform="matrix(1 0 0 1 560.6301 309.5538)" class="st1 st2 st3">temptation</text>
		<circle class="st5" cx="1107.3" cy="308.5" r="91"/>
		<text transform="matrix(1 0 0 1 1081.79 295.4694)" class="st1 st2 st3">Snaps</text>
		<circle class="st6" cx="849.8" cy="309.6" r="91"/>
		<text transform="matrix(1 0 0 1 799.27 296.4937)" class="st1 st2 st3">Strawberries</text>
	</g>
</g>
</svg>
