<?xml version="1.0" encoding="utf-8"?>
<!-- Generator: Adobe Illustrator 25.4.1, SVG Export Plug-In . SVG Version: 6.00 Build 0)  -->
<svg version="1.1" id="Layer_1" xmlns="http://www.w3.org/2000/svg" xmlns:xlink="http://www.w3.org/1999/xlink" x="0px" y="0px"
	 viewBox="0 0 1536 1922" style="enable-background:new 0 0 1536 1922;" xml:space="preserve">
<style type="text/css">
	.st0{fill:none;stroke:#A6B7C8;stroke-width:2;}
	.st1{fill:#A6B7C8;}
	.st2{fill:#FFFFFF;}
	.st3{font-family:'ArialMT';}
	.st4{font-size:16px;}
	.st5{stroke:#A6B7C8;stroke-width:2;}
	.st6{fill:#FB9E00;stroke:#CCCCCC;stroke-width:2;}
	.st7{fill:#4D4D4D;}
	.st8{fill:#333333;}
	.st9{fill:#B0BC00;stroke:#B0BC00;stroke-width:2;}
	.st10{fill:#68BC00;stroke:#68BC00;stroke-width:2;}
	.st11{fill:#F44E3B;stroke:#A6B7C8;stroke-width:2;}
</style>
<path class="st0" d="M145.8,1210.8l34.4,47.7c1.3,1.8,2.4,3.6,3.4,5.6l51.8,104.1l51.8,104.1c1,1.9,1.8,4,2.4,6l13.1,42.6l0,0"/>
<polygon class="st1" points="302.6,1520.8 297.2,1520.9 306.8,1534.3 307.2,1517.8 "/>
<g transform="translate(0 0)">
	<g transform="translate(-59.399932861328125 0)">
		
			<rect x="285.7" y="1308.7" transform="matrix(0.8953 -0.4455 0.4455 0.8953 -578.5783 274.5309)" class="st2" width="18" height="118.8"/>
		<text transform="matrix(0.4455 0.8953 -0.8953 0.4455 263.8357 1317.0953)" class="st1 st3 st4">SERVED_WITH</text>
	</g>
</g>
<path class="st0" d="M280.1,1547.6l-34.4-47.7c-1.3-1.8-2.4-3.6-3.4-5.6l-51.8-104.1l-51.8-104.1c-1-1.9-1.8-4-2.4-6l-13.1-42.6l0,0
	"/>
<polygon class="st1" points="123.2,1237.6 128.7,1237.6 119.1,1224.1 118.7,1240.7 "/>
<g transform="translate(0 0)">
	<g transform="translate(-59.399932861328125 0)">
		
			<rect x="241" y="1330.9" transform="matrix(0.8953 -0.4455 0.4455 0.8953 -593.1875 256.9216)" class="st2" width="18" height="118.8"/>
		<text transform="matrix(0.4455 0.8953 -0.8953 0.4455 219.071 1339.3688)" class="st1 st3 st4">SERVED_WITH</text>
	</g>
</g>
<path class="st0" d="M423.5,1642.9l57.2,13.2c2.1,0.5,4.2,1.1,6.2,2l109,44.7l109,44.7c2,0.8,4,1.8,5.8,3l38,23.4l0,0"/>
<polygon class="st1" points="748.7,1774 744.6,1777.6 760.7,1781.4 750.1,1768.7 "/>
<g transform="translate(0 0)">
	<g transform="translate(-59.399932861328125 0)">
		
			<rect x="646.4" y="1643.5" transform="matrix(0.3798 -0.9251 0.9251 0.3798 -1168.809 1662.2767)" class="st2" width="18" height="118.8"/>
		<text transform="matrix(0.9251 0.3798 -0.3798 0.9251 598.5253 1684.8644)" class="st1 st3 st4">SERVED_WITH</text>
	</g>
</g>
<path class="st0" d="M749.4,1809l-57.2-13.2c-2.1-0.5-4.2-1.1-6.2-2l-109-44.7l-109-44.7c-2-0.8-4-1.8-5.8-3l-38-23.4l0,0"/>
<polygon class="st1" points="424.2,1678 428.3,1674.4 412.2,1670.6 422.8,1683.3 "/>
<g transform="translate(0 0)">
	<g transform="translate(-59.399932861328125 0)">
		
			<rect x="627.4" y="1689.7" transform="matrix(0.3798 -0.9251 0.9251 0.3798 -1223.373 1673.3921)" class="st2" width="18" height="118.8"/>
		<text transform="matrix(0.9251 0.3798 -0.3798 0.9251 579.5331 1731.1169)" class="st1 st3 st4">SERVED_WITH</text>
	</g>
</g>
<path class="st5" d="M835.9,131.4l481.7,228.2"/>
<polygon class="st1" points="1317.6,359.5 1314,363.6 1330.4,365.6 1318.5,354.1 "/>
<g transform="translate(0 0)">
	<g transform="translate(-32.39996337890625 0)">
		
			<rect x="1100.2" y="213.1" transform="matrix(0.4281 -0.9037 0.9037 0.4281 412.5359 1142.8066)" class="st2" width="18" height="64.8"/>
		<text transform="matrix(0.9037 0.4281 -0.4281 0.9037 1077.7855 236.0611)" class="st1 st3 st4">BEFORE</text>
	</g>
</g>
<path class="st0" d="M1398.4,1145.9l-28.5,51.4c-1.1,1.9-2.3,3.7-3.6,5.4l-205.7,260.3l-205.7,260.3c-1.3,1.7-2.8,3.3-4.4,4.8
	l-33,30l0,0"/>
<polygon class="st1" points="917.5,1758.2 915.1,1753.3 907,1767.7 922.2,1761 "/>
<g transform="translate(0 0)">
	<g transform="translate(-59.399932861328125 0)">
		
			<rect x="1160.6" y="1454.1" transform="matrix(0.62 -0.7846 0.7846 0.62 -684.301 1513.1522)" class="st2" width="118.8" height="18"/>
		<text transform="matrix(0.62 -0.7846 0.7846 0.62 1187.084 1512.7202)" class="st1 st3 st4">SERVED_WITH</text>
	</g>
</g>
<path class="st0" d="M883.6,1749.2l28.5-51.4c1.1-1.9,2.3-3.7,3.6-5.4l205.7-260.3l205.7-260.3c1.3-1.7,2.8-3.3,4.4-4.8l33-30l0,0"
	/>
<polygon class="st1" points="1364.5,1136.9 1366.9,1141.8 1375,1127.4 1359.9,1134.1 "/>
<g transform="translate(0 0)">
	<g transform="translate(-59.399932861328125 0)">
		
			<rect x="1121.4" y="1423.1" transform="matrix(0.62 -0.7846 0.7846 0.62 -674.8843 1470.5936)" class="st2" width="118.8" height="18"/>
		<text transform="matrix(0.62 -0.7846 0.7846 0.62 1147.8547 1481.7192)" class="st1 st3 st4">SERVED_WITH</text>
	</g>
</g>
<path class="st5" d="M175.1,365.6l481.7-228.2"/>
<polygon class="st1" points="656.8,137.4 657.7,142.9 669.6,131.4 653.2,133.4 "/>
<g transform="translate(0 0)">
	<g transform="translate(-32.39996337890625 0)">
		
			<rect x="416" y="242.5" transform="matrix(0.9037 -0.4281 0.4281 0.9037 -64.51 216.1557)" class="st2" width="64.8" height="18"/>
		<text transform="matrix(0.9037 -0.4281 0.4281 0.9037 421.2302 269.8593)" class="st1 st3 st4">BEFORE</text>
	</g>
</g>
<path class="st5" d="M92,1044.2v-533"/>
<polygon class="st1" points="92,511.1 97.2,512.7 92,497 86.8,512.7 "/>
<g transform="translate(0 0)">
	<g transform="translate(-48.599945068359375 0)">
		<rect x="131.6" y="729" class="st2" width="18" height="97.2"/>
		<text transform="matrix(6.123234e-17 1 -1 6.123234e-17 135.6585 729.0488)" class="st1 st3 st4">SERVED_ON</text>
	</g>
</g>
<path class="st5" d="M315.9,1532L112.7,509.1"/>
<polygon class="st1" points="112.7,509.1 118.1,509.6 109.9,495.2 107.9,511.7 "/>
<g transform="translate(0 0)">
	<g transform="translate(-48.599945068359375 0)">
		
			<rect x="253.9" y="972" transform="matrix(0.9808 -0.1949 0.1949 0.9808 -193.8594 70.8101)" class="st2" width="18" height="97.2"/>
		<text transform="matrix(0.1949 0.9808 -0.9808 0.1949 248.5992 973.8666)" class="st1 st3 st4">SERVED_ON</text>
	</g>
</g>
<path class="st5" d="M358.2,1533.5L724.8,194.4"/>
<polygon class="st1" points="724.8,194.4 729.4,197.3 728.5,180.7 719.3,194.5 "/>
<g transform="translate(0 0)">
	<g transform="translate(-48.599945068359375 0)">
		
			<rect x="541.5" y="855" transform="matrix(0.264 -0.9645 0.9645 0.264 -399.037 1204.9686)" class="st2" width="97.2" height="18"/>
		<text transform="matrix(0.264 -0.9645 0.9645 0.264 581.9954 912.1414)" class="st1 st3 st4">SERVED_ON</text>
	</g>
</g>
<path class="st5" d="M796.3,1748.2L141.3,499"/>
<polygon class="st1" points="141.3,499 146.7,498 134.7,486.5 137.4,502.8 "/>
<g transform="translate(0 0)">
	<g transform="translate(-48.599945068359375 0)">
		
			<rect x="508.4" y="1075" transform="matrix(0.8856 -0.4644 0.4644 0.8856 -462.6072 368.7686)" class="st2" width="18" height="97.2"/>
		<text transform="matrix(0.4644 0.8856 -0.8856 0.4644 490.4579 1082.8628)" class="st1 st3 st4">SERVED_ON</text>
	</g>
</g>
<path class="st5" d="M141.2,1058.4L696,181.7"/>
<polygon class="st1" points="696,181.7 699.6,185.8 703.6,169.7 690.7,180.2 "/>
<g transform="translate(0 0)">
	<g transform="translate(-48.599945068359375 0)">
		
			<rect x="418.6" y="611.1" transform="matrix(0.5348 -0.845 0.845 0.5348 -306.5866 683.2709)" class="st2" width="97.2" height="18"/>
		<text transform="matrix(0.5348 -0.845 0.845 0.5348 445.394 663.7665)" class="st1 st3 st4">SERVED_ON</text>
	</g>
</g>
<path class="st5" d="M834.5,1737.8L758,198"/>
<polygon class="st1" points="758,198 763.4,199.3 757.3,183.9 752.9,199.9 "/>
<g transform="translate(0 0)">
	<g transform="translate(-48.599945068359375 0)">
		
			<rect x="835.9" y="919.3" transform="matrix(0.9988 -4.957199e-02 4.957199e-02 0.9988 -46.9428 43.0714)" class="st2" width="18" height="97.2"/>
		<text transform="matrix(4.957199e-02 0.9988 -0.9988 4.957199e-02 837.5161 919.621)" class="st1 st3 st4">SERVED_ON</text>
	</g>
</g>
<path class="st5" d="M1389.8,990.4L814.2,178.6"/>
<polygon class="st1" points="814.2,178.6 819.4,176.8 806,167 810.8,182.9 "/>
<g transform="translate(0 0)">
	<g transform="translate(-48.599945068359375 0)">
		
			<rect x="1141.6" y="535.9" transform="matrix(0.8157 -0.5784 0.5784 0.8157 -126.0638 773.2276)" class="st2" width="18" height="97.2"/>
		<text transform="matrix(0.5784 0.8157 -0.8157 0.5784 1118.4503 547.691)" class="st1 st3 st4">SERVED_ON</text>
	</g>
</g>
<path class="st5" d="M172.5,1091.6l1148.2-635.2"/>
<polygon class="st1" points="1320.7,456.4 1321.8,461.7 1333.1,449.5 1316.8,452.6 "/>
<g transform="translate(0 0)">
	<g transform="translate(-48.599945068359375 0)">
		
			<rect x="746.6" y="765" transform="matrix(0.875 -0.4841 0.4841 0.875 -275.3041 481.6959)" class="st2" width="97.2" height="18"/>
		<text transform="matrix(0.875 -0.4841 0.4841 0.875 755.0589 801.8481)" class="st1 st3 st4">SERVED_ON</text>
	</g>
</g>
<path class="st5" d="M394.9,1553.4l948.2-1069"/>
<polygon class="st1" points="1343.1,484.4 1346,489.1 1352.5,473.8 1338.2,482.1 "/>
<g transform="translate(0 0)">
	<g transform="translate(-48.599945068359375 0)">
		
			<rect x="869" y="1009.9" transform="matrix(0.6636 -0.7481 0.7481 0.6636 -453.5547 1029.2999)" class="st2" width="97.2" height="18"/>
		<text transform="matrix(0.6636 -0.7481 0.7481 0.6636 889.0743 1058.5621)" class="st1 st3 st4">SERVED_ON</text>
	</g>
</g>
<path class="st5" d="M873.4,1744.4l500.4-1240.9"/>
<polygon class="st1" points="1373.9,503.4 1378.1,506.9 1379.2,490.3 1368.4,502.9 "/>
<g transform="translate(0 0)">
	<g transform="translate(-48.599945068359375 0)">
		
			<rect x="1123.7" y="1114.9" transform="matrix(0.374 -0.9274 0.9274 0.374 -308.513 1790.7441)" class="st2" width="97.2" height="18"/>
		<text transform="matrix(0.374 -0.9274 0.9274 0.374 1158.6605 1170.8265)" class="st1 st3 st4">SERVED_ON</text>
	</g>
</g>
<path class="st5" d="M1438.9,973.5L1418.3,511"/>
<polygon class="st1" points="1418.3,511 1423.6,512.4 1417.7,496.9 1413.1,512.8 "/>
<g transform="translate(0 0)">
	<g transform="translate(-48.599945068359375 0)">
		
			<rect x="1468.2" y="693.7" transform="matrix(0.999 -4.453436e-02 4.453436e-02 0.999 -31.5909 66.5229)" class="st2" width="18" height="97.2"/>
		<text transform="matrix(4.453436e-02 0.999 -0.999 4.453436e-02 1470.1051 693.9381)" class="st1 st3 st4">SERVED_ON</text>
	</g>
</g>
<path class="st0" d="M168.7,1187l49,32.5c1.8,1.2,3.5,2.5,5.1,4l259.7,241.1l259.7,241.1c1.6,1.5,3.1,3.1,4.4,4.8l27.3,35.2l0,0"/>
<polygon class="st1" points="774,1745.8 768.9,1747.8 782.7,1757 777.2,1741.3 "/>
<g transform="translate(0 0)">
	<g transform="translate(-59.399932861328125 0)">
		
			<rect x="532.9" y="1405.2" transform="matrix(0.6804 -0.7329 0.7329 0.6804 -900.1358 865.2675)" class="st2" width="18" height="118.8"/>
		<text transform="matrix(0.7329 0.6804 -0.6804 0.7329 495.0319 1427.8087)" class="st1 st3 st4">SERVED_WITH</text>
	</g>
</g>
<path class="st0" d="M762.3,1778.9l-49-32.5c-1.8-1.2-3.5-2.5-5.1-4l-259.7-241.1l-259.7-241.1c-1.6-1.5-3.1-3.1-4.4-4.8L157,1220
	l0,0"/>
<polygon class="st1" points="157,1220 162.1,1218.1 148.4,1208.9 153.9,1224.5 "/>
<g transform="translate(0 0)">
	<g transform="translate(-59.399932861328125 0)">
		
			<rect x="498.9" y="1441.8" transform="matrix(0.6804 -0.7329 0.7329 0.6804 -937.8629 852.0481)" class="st2" width="18" height="118.8"/>
		<text transform="matrix(0.7329 0.6804 -0.6804 0.7329 461.0133 1464.4515)" class="st1 st3 st4">SERVED_WITH</text>
	</g>
</g>
<path class="st0" d="M181.9,1116.5l57.4-12.6c2.1-0.5,4.3-0.8,6.5-0.9l520.5-27.3l520.5-27.3c2.2-0.1,4.3-0.1,6.5,0.2l44.3,4.9l0,0"
	/>
<polygon class="st1" points="1337.5,1053.7 1335.4,1058.7 1351.6,1055.2 1336.5,1048.3 "/>
<g transform="translate(0 0)">
	<g transform="translate(-59.399932861328125 0)">
		
			<rect x="766.2" y="1066.8" transform="matrix(0.9986 -5.229201e-02 5.229201e-02 0.9986 -55.127 44.6441)" class="st2" width="118.8" height="18"/>
		<text transform="matrix(0.9986 -5.229201e-02 5.229201e-02 0.9986 766.5381 1083.8556)" class="st1 st3 st4">SERVED_WITH</text>
	</g>
</g>
<path class="st0" d="M1353.1,1085.1l-57.4,12.6c-2.1,0.5-4.3,0.8-6.5,0.9l-520.5,27.3L248.3,1153c-2.2,0.1-4.3,0.1-6.5-0.2
	l-44.3-4.9l0,0"/>
<polygon class="st1" points="197.5,1147.9 199.6,1142.8 183.4,1146.3 198.5,1153.3 "/>
<g transform="translate(0 0)">
	<g transform="translate(-59.399932861328125 0)">
		
			<rect x="768.8" y="1116.7" transform="matrix(0.9986 -5.229181e-02 5.229181e-02 0.9986 -57.7342 44.8489)" class="st2" width="118.8" height="18"/>
		<text transform="matrix(0.9986 -5.229181e-02 5.229181e-02 0.9986 769.1527 1133.7871)" class="st1 st3 st4">SERVED_WITH</text>
	</g>
</g>
<path class="st0" d="M408.3,1568.2l47.5-34.5c1.8-1.3,3.6-2.4,5.6-3.4l415.8-208.8l415.8-208.8c1.9-1,4-1.8,6-2.4l42.6-13.3l0,0"/>
<polygon class="st1" points="1341.7,1097 1341.7,1102.5 1355.2,1092.8 1338.6,1092.5 "/>
<g transform="translate(0 0)">
	<g transform="translate(-59.399932861328125 0)">
		
			<rect x="877.2" y="1312.5" transform="matrix(0.8937 -0.4487 0.4487 0.8937 -493.3687 560.7487)" class="st2" width="118.8" height="18"/>
		<text transform="matrix(0.8937 -0.4487 0.4487 0.8937 885.7585 1352.5656)" class="st1 st3 st4">SERVED_WITH</text>
	</g>
</g>
<path class="st0" d="M1368.6,1119.5l-47.5,34.5c-1.8,1.3-3.6,2.4-5.6,3.4l-415.8,208.8L483.8,1575c-1.9,1-4,1.8-6,2.4l-42.6,13.3
	l0,0"/>
<polygon class="st1" points="435.2,1590.7 435.2,1585.2 421.7,1594.9 438.3,1595.2 "/>
<g transform="translate(0 0)">
	<g transform="translate(-59.399932861328125 0)">
		
			<rect x="899.7" y="1357.2" transform="matrix(0.8937 -0.4487 0.4487 0.8937 -511.0332 575.5657)" class="st2" width="118.8" height="18"/>
		<text transform="matrix(0.8937 -0.4487 0.4487 0.8937 908.1931 1397.2499)" class="st1 st3 st4">SERVED_WITH</text>
	</g>
</g>
<path class="st5" d="M1321.6,405H198.2"/>
<polygon class="st1" points="198.2,405 199.7,399.7 184,405 199.7,410.2 "/>
<g transform="translate(0 0)">
	<g transform="translate(-32.39996337890625 0)">
		<rect x="759.9" y="396" class="st2" width="64.8" height="18"/>
		<text transform="matrix(1 0 0 1 759.8631 409.9304)" class="st1 st3 st4">BEFORE</text>
	</g>
</g>
<path class="st0" d="M1434,1157l-5.7,58.5c-0.2,2.2-0.6,4.3-1.2,6.4l-25.5,95.6l-25.5,95.6c-0.6,2.1-1.3,4.2-2.2,6.1l-18.3,40.6l0,0
	"/>
<polygon class="st1" points="1355.6,1459.9 1351.5,1456.3 1349.8,1472.8 1361,1460.6 "/>
<g transform="translate(0 0)">
	<g transform="translate(-59.399932861328125 0)">
		
			<rect x="1401.6" y="1308.5" transform="matrix(0.2578 -0.9662 0.9662 0.2578 -188.5253 2389.5352)" class="st2" width="118.8" height="18"/>
		<text transform="matrix(0.2578 -0.9662 0.9662 0.2578 1450.5011 1376.1409)" class="st1 st3 st4">SERVED_WITH</text>
	</g>
</g>
<path class="st0" d="M1320.9,1465.1l5.7-58.5c0.2-2.2,0.6-4.3,1.2-6.4l25.5-95.6l25.5-95.6c0.6-2.1,1.3-4.2,2.2-6.1l18.3-40.6l0,0"
	/>
<polygon class="st1" points="1399.4,1162.2 1403.5,1165.8 1405.2,1149.3 1393.9,1161.5 "/>
<g transform="translate(0 0)">
	<g transform="translate(-59.399932861328125 0)">
		
			<rect x="1353.3" y="1295.6" transform="matrix(0.2578 -0.9662 0.9662 0.2578 -211.9296 2333.2917)" class="st2" width="118.8" height="18"/>
		<text transform="matrix(0.2578 -0.9662 0.9662 0.2578 1402.1907 1363.2523)" class="st1 st3 st4">SERVED_WITH</text>
	</g>
</g>
<path class="st5" d="M1279.1,1470.7L790.6,191.2"/>
<polygon class="st1" points="790.6,191.2 796.1,190.8 785.6,177.9 786.3,194.5 "/>
<g transform="translate(0 0)">
	<g transform="translate(-48.599945068359375 0)">
		
			<rect x="1074.5" y="782.3" transform="matrix(0.9342 -0.3567 0.3567 0.9342 -225.1088 441.097)" class="st2" width="18" height="97.2"/>
		<text transform="matrix(0.3567 0.9342 -0.9342 0.3567 1061.545 787.2971)" class="st1 st3 st4">SERVED_ON</text>
	</g>
</g>
<path class="st0" d="M1240.8,1615l-45.4,37.2c-1.7,1.4-3.5,2.6-5.4,3.7l-102,58.9l-102,58.9c-1.9,1.1-3.9,2-5.9,2.8l-41.7,15.7l0,0"
	/>
<polygon class="st1" points="938.4,1792.2 938,1786.8 925.1,1797.2 941.7,1796.6 "/>
<g transform="translate(0 0)">
	<g transform="translate(-59.399932861328125 0)">
		<rect x="1088" y="1705.8" transform="matrix(0.866 -0.5 0.5 0.866 -703.6906 803.4398)" class="st2" width="118.8" height="18"/>
		<text transform="matrix(0.866 -0.5 0.5 0.866 1098.4225 1748.8031)" class="st1 st3 st4">SERVED_WITH</text>
	</g>
</g>
<path class="st0" d="M910.2,1771.4l45.4-37.2c1.7-1.4,3.5-2.6,5.4-3.7l102-58.9l102-58.9c1.9-1.1,3.9-2,5.9-2.8l41.7-15.7l0,0"/>
<polygon class="st1" points="1212.6,1594.1 1213,1599.6 1225.9,1589.1 1209.3,1589.8 "/>
<g transform="translate(0 0)">
	<g transform="translate(-59.399932861328125 0)">
		<rect x="1063" y="1662.5" transform="matrix(0.866 -0.5 0.5 0.866 -685.3893 785.1385)" class="st2" width="118.8" height="18"/>
		<text transform="matrix(0.866 -0.5 0.5 0.866 1073.4225 1705.5018)" class="st1 st3 st4">SERVED_WITH</text>
	</g>
</g>
<path class="st0" d="M1221.3,1541.2l-57.9-9.9c-2.1-0.4-4.3-0.9-6.3-1.6L693.8,1370l-463.2-159.7c-2.1-0.7-4.1-1.6-6-2.6l-39.2-21.2
	l0,0"/>
<polygon class="st1" points="185.4,1186.6 189.3,1182.7 173,1179.9 184.3,1191.9 "/>
<g transform="translate(0 0)">
	<g transform="translate(-59.399932861328125 0)">
		
			<rect x="744.2" y="1310.6" transform="matrix(0.3259 -0.9454 0.9454 0.3259 -787.4785 1635.6996)" class="st2" width="18" height="118.8"/>
		<text transform="matrix(0.9454 0.3259 -0.3259 0.9454 695.4633 1355.3528)" class="st1 st3 st4">SERVED_WITH</text>
	</g>
</g>
<path class="st0" d="M182.7,1151.6l57.9,9.9c2.1,0.4,4.3,0.9,6.3,1.6l463.2,159.7l463.2,159.7c2.1,0.7,4.1,1.6,6,2.6l39.2,21.2l0,0"
	/>
<polygon class="st1" points="1218.5,1506.2 1214.7,1510.1 1231,1513 1219.6,1500.9 "/>
<g transform="translate(0 0)">
	<g transform="translate(-59.399932861328125 0)">
		
			<rect x="760.5" y="1263.4" transform="matrix(0.3259 -0.9454 0.9454 0.3259 -731.8041 1619.2371)" class="st2" width="18" height="118.8"/>
		<text transform="matrix(0.9454 0.3259 -0.3259 0.9454 711.7567 1308.082)" class="st1 st3 st4">SERVED_WITH</text>
	</g>
</g>
<path class="st0" d="M423.5,1601.3l57.2-13.4c2.1-0.5,4.3-0.8,6.4-1l334.1-22.4l334.1-22.4c2.2-0.1,4.3-0.1,6.5,0.1l44.4,4.3l0,0"/>
<polygon class="st1" points="1206.3,1546.5 1204.2,1551.5 1220.4,1547.8 1205.2,1541.1 "/>
<g transform="translate(0 0)">
	<g transform="translate(-59.399932861328125 0)">
		
			<rect x="821.2" y="1555.5" transform="matrix(0.9978 -6.693771e-02 6.693771e-02 0.9978 -102.7501 62.4571)" class="st2" width="118.8" height="18"/>
		<text transform="matrix(0.9978 -6.693771e-02 6.693771e-02 0.9978 821.7062 1573.4235)" class="st1 st3 st4">SERVED_WITH</text>
	</g>
</g>
<path class="st0" d="M1222.4,1577.6l-57.2,13.4c-2.1,0.5-4.3,0.8-6.4,1l-334.1,22.4l-334.1,22.4c-2.2,0.1-4.3,0.1-6.5-0.1l-44.4-4.3
	l0,0"/>
<polygon class="st1" points="439.5,1632.5 441.6,1627.4 425.5,1631.1 440.6,1637.8 "/>
<g transform="translate(0 0)">
	<g transform="translate(-59.399932861328125 0)">
		
			<rect x="824.6" y="1605.4" transform="matrix(0.9978 -6.693747e-02 6.693747e-02 0.9978 -106.0816 62.7928)" class="st2" width="118.8" height="18"/>
		<text transform="matrix(0.9978 -6.693747e-02 6.693747e-02 0.9978 825.053 1623.3114)" class="st1 st3 st4">SERVED_WITH</text>
	</g>
</g>
<circle class="st6" cx="752.8" cy="92" r="91"/>
<g transform="scale(1) translate(0 -28.799999999999997)">
	<g transform="translate(0 0)">
		<g>
			<text transform="matrix(1 0 0 1 705.7816 107.7409)" class="st7 st3 st4">Midsummer</text>
		</g>
	</g>
	<g transform="translate(0 25.599999999999998)">
		<g transform="translate(-37.799957275390625 0)">
			<g>
				<text transform="matrix(1 0 0 1 752.7855 112.941)" class="st8 st3 st4">holiday</text>
			</g>
		</g>
	</g>
</g>
<circle class="st6" cx="92" cy="405" r="91"/>
<g transform="scale(1) translate(0 -28.799999999999997)">
	<g transform="translate(0 0)">
		<g>
			<text transform="matrix(1 0 0 1 65.9888 420.7304)" class="st7 st3 st4">Easter</text>
		</g>
	</g>
	<g transform="translate(0 25.599999999999998)">
		<g transform="translate(-37.799957275390625 0)">
			<g>
				<text transform="matrix(1 0 0 1 92 425.9305)" class="st8 st3 st4">holiday</text>
			</g>
		</g>
	</g>
</g>
<circle class="st9" cx="92" cy="1136.2" r="91"/>
<g transform="scale(0.9086246122590105) translate(0 -46.8)">
	<g transform="translate(0 0)">
		<g>
			<text transform="matrix(1.1006 0 0 1.1006 41.7236 1266.1497)" class="st7 st3 st4">Pickled herring</text>
		</g>
	</g>
	<g transform="translate(0 25.599999999999998)">
		<g transform="translate(-21.5999755859375 0)">
			<g>
				<text transform="matrix(1.1006 0 0 1.1006 101.2517 1271.3505)" class="st7 st3 st4">dish</text>
			</g>
		</g>
		<g transform="translate(-21.5999755859375 40)">
			<g>
				<text transform="matrix(1.1006 0 0 1.1006 101.2517 1271.3501)" class="st7 st3 st4">food</text>
			</g>
		</g>
	</g>
</g>
<circle class="st9" cx="333.9" cy="1622.3" r="91"/>
<g transform="scale(1) translate(0 -57.599999999999994)">
	<g transform="translate(0 0)">
		<g>
			<text transform="matrix(1 0 0 1 294.8569 1638.0112)" class="st7 st3 st4">Dill boiled</text>
			<text transform="matrix(1 0 0 1 299.3481 1659.6112)" class="st7 st3 st4">potatoes</text>
		</g>
	</g>
	<g transform="translate(0 47.199999999999996)">
		<g transform="translate(-21.5999755859375 0)">
			<g>
				<text transform="matrix(1 0 0 1 333.8759 1643.2112)" class="st7 st3 st4">dish</text>
			</g>
		</g>
		<g transform="translate(-21.5999755859375 40)">
			<g>
				<text transform="matrix(1 0 0 1 333.8759 1643.2112)" class="st7 st3 st4">food</text>
			</g>
		</g>
	</g>
</g>
<circle class="st9" cx="839" cy="1829.7" r="91"/>
<g transform="scale(1) translate(0 -57.599999999999994)">
	<g transform="translate(0 0)">
		<g>
			<text transform="matrix(1 0 0 1 799.2927 1845.4358)" class="st7 st3 st4">Jansson&apos;s</text>
			<text transform="matrix(1 0 0 1 797.0075 1867.0358)" class="st7 st3 st4">temptation</text>
		</g>
	</g>
	<g transform="translate(0 47.199999999999996)">
		<g transform="translate(-21.5999755859375 0)">
			<g>
				<text transform="matrix(1 0 0 1 839.0325 1850.6357)" class="st7 st3 st4">dish</text>
			</g>
		</g>
		<g transform="translate(-21.5999755859375 40)">
			<g>
				<text transform="matrix(1 0 0 1 839.0325 1850.6357)" class="st7 st3 st4">food</text>
			</g>
		</g>
	</g>
</g>
<circle class="st6" cx="1413.6" cy="405" r="91"/>
<g transform="scale(1) translate(0 -28.799999999999997)">
	<g transform="translate(0 0)">
		<g>
			<text transform="matrix(1 0 0 1 1373.0665 420.7304)" class="st7 st3 st4">Christmas</text>
		</g>
	</g>
	<g transform="translate(0 25.599999999999998)">
		<g transform="translate(-37.799957275390625 0)">
			<g>
				<text transform="matrix(1 0 0 1 1413.5709 425.9305)" class="st8 st3 st4">holiday</text>
			</g>
		</g>
	</g>
</g>
<circle class="st10" cx="1443" cy="1065.4" r="91"/>
<g transform="scale(1) translate(0 -46.8)">
	<g transform="translate(0 0)">
		<g>
			<text transform="matrix(1 0 0 1 1417.4926 1081.15)" class="st7 st3 st4">Snaps</text>
		</g>
	</g>
	<g transform="translate(0 25.599999999999998)">
		<g transform="translate(-26.999969482421875 0)">
			<g>
				<text transform="matrix(1 0 0 1 1443.0116 1086.35)" class="st7 st3 st4">drink</text>
			</g>
		</g>
		<g transform="translate(-21.5999755859375 40)">
			<g>
				<text transform="matrix(1 0 0 1 1443.0116 1086.35)" class="st7 st3 st4">food</text>
			</g>
		</g>
	</g>
</g>
<circle class="st11" cx="1312" cy="1556.7" r="91"/>
<g transform="scale(1) translate(0 -46.8)">
	<g transform="translate(0 0)">
		<g>
			<text transform="matrix(1 0 0 1 1261.4402 1572.3937)" class="st7 st3 st4">Strawberries</text>
		</g>
	</g>
	<g transform="translate(0 25.599999999999998)">
		<g transform="translate(-26.999969482421875 0)">
			<g>
				<text transform="matrix(1 0 0 1 1311.9553 1577.5936)" class="st7 st3 st4">fruit</text>
			</g>
		</g>
		<g transform="translate(-21.5999755859375 40)">
			<g>
				<text transform="matrix(1 0 0 1 1311.9553 1577.5936)" class="st7 st3 st4">food</text>
			</g>
		</g>
	</g>
</g>
</svg>
